<?xml version="1.0" encoding="iso-8859-1"?>
<!-- Uploaded to: SVG Repo, www.svgrepo.com, Generator: SVG Repo Mixer Tools -->
<svg height="20px" width="20px" version="1.1" id="Layer_1" xmlns="http://www.w3.org/2000/svg" xmlns:xlink="http://www.w3.org/1999/xlink" 
	 viewBox="0 0 512.002 512.002" xml:space="preserve">
<circle style="fill:#273B7A;" cx="256.001" cy="256" r="256"/>
<path style="fill:#121149;" d="M511.318,274.684l-120.93-120.93L218.649,301.397l18.503,18.503L118.95,378.302l133.656,133.656
	c1.131,0.016,2.26,0.043,3.394,0.043C391.102,512,501.749,407.345,511.318,274.684z"/>
<polygon style="fill:#FEE187;" points="155.825,385.677 118.95,378.302 155.823,341.428 177.948,363.553 "/>
<polygon style="fill:#FFC61B;" points="137.946,382.1 155.825,385.677 177.948,363.553 167.221,352.825 "/>
<path style="fill:#EAA22F;" d="M170.928,375.303l-26.855-26.855c-5.111-5.111-6.089-13.045-2.369-19.244l26.858-44.763
	l66.372,66.374l-44.763,26.858C183.973,381.392,176.037,380.414,170.928,375.303z"/>
<path style="fill:#E09112;" d="M157.835,362.212l13.091,13.091c5.111,5.111,13.045,6.087,19.244,2.369l44.763-26.858l-32.851-32.851
	L157.835,362.212z"/>
<path style="fill:#FFC61B;" d="M205.27,365.397l-51.291-51.291c-9.923-9.923-9.018-26.271,1.941-35.037L340.555,131.36
	c9.144-7.315,22.326-6.585,30.606,1.695l15.16,15.16c8.28,8.28,9.011,21.463,1.695,30.606L240.306,363.458
	C231.54,374.417,215.193,375.322,205.27,365.397z"/>
<path style="fill:#EAA22F;" d="M386.32,148.215l-7.244-7.244L179.959,340.087l25.31,25.31c9.923,9.923,26.271,9.018,35.037-1.941
	l147.709-184.637C395.33,169.675,394.601,156.494,386.32,148.215z"/>
</svg>